<svg width="249" height="46" viewBox="0 0 249 46" fill="none" xmlns="http://www.w3.org/2000/svg">
<g clip-path="url(#clip0_6626_3001)">
<path d="M56.6001 21.9998V12.4958H60.0721V10.6718H51.1121V12.4958H54.5841V21.9998H56.6001ZM63.1921 21.9998V17.8878C63.1921 17.7811 63.2161 17.6211 63.2641 17.4078C63.3121 17.1945 63.4081 16.9811 63.5521 16.7678C63.6961 16.5545 63.9041 16.3651 64.1761 16.1998C64.4481 16.0345 64.8081 15.9518 65.2561 15.9518C65.4054 15.9518 65.5574 15.9651 65.7121 15.9918C65.8667 16.0185 66.0241 16.0531 66.1841 16.0958V14.2398C66.0667 14.2078 65.9521 14.1811 65.8401 14.1598C65.7281 14.1385 65.6134 14.1278 65.4961 14.1278C64.9841 14.1278 64.5307 14.2505 64.1361 14.4958C63.7414 14.7411 63.4374 15.0878 63.2241 15.5358H63.1921V14.3198H61.2721V21.9998H63.1921ZM69.7841 22.1918C70.2961 22.1918 70.7654 22.0931 71.1921 21.8958C71.6187 21.6985 71.9707 21.3811 72.2481 20.9438H72.2961V21.9998H74.0241V17.5838C74.0241 17.4025 74.0187 17.1918 74.0081 16.9518C73.9974 16.7118 73.9627 16.4638 73.9041 16.2078C73.8454 15.9518 73.7494 15.6985 73.6161 15.4478C73.4827 15.1971 73.2934 14.9758 73.0481 14.7838C72.8027 14.5918 72.4934 14.4345 72.1201 14.3118C71.7467 14.1891 71.2881 14.1278 70.7441 14.1278C70.1361 14.1278 69.5467 14.2238 68.9761 14.4158C68.4054 14.6078 67.9067 14.9225 67.4801 15.3598L68.4881 16.3678C68.7441 16.1225 69.0481 15.9278 69.4001 15.7838C69.7521 15.6398 70.1307 15.5678 70.5361 15.5678C71.0481 15.5678 71.4694 15.6878 71.8001 15.9278C72.1307 16.1678 72.2961 16.5278 72.2961 17.0078V17.2158H71.8161C71.4961 17.2158 71.1547 17.2238 70.7921 17.2398C70.4294 17.2558 70.0694 17.2931 69.7121 17.3518C69.3547 17.4105 69.0107 17.4985 68.6801 17.6158C68.3494 17.7331 68.0587 17.8905 67.8081 18.0878C67.5574 18.2851 67.3574 18.5305 67.2081 18.8238C67.0587 19.1171 66.9841 19.4718 66.9841 19.8878C66.9841 20.2718 67.0641 20.6078 67.2241 20.8958C67.3841 21.1838 67.5947 21.4238 67.8561 21.6158C68.1174 21.8078 68.4161 21.9518 68.7521 22.0478C69.0881 22.1438 69.4321 22.1918 69.7841 22.1918ZM70.2481 20.7518C70.0881 20.7518 69.9281 20.7331 69.7681 20.6958C69.6081 20.6585 69.4641 20.5971 69.3361 20.5118C69.2081 20.4265 69.1041 20.3225 69.0241 20.1998C68.9441 20.0771 68.9041 19.9251 68.9041 19.7438C68.9041 19.4665 69.0054 19.2505 69.2081 19.0958C69.4107 18.9411 69.6587 18.8238 69.9521 18.7438C70.2454 18.6638 70.5574 18.6131 70.8881 18.5918C71.2187 18.5705 71.5174 18.5598 71.7841 18.5598H72.1841V18.9918C72.1841 19.5358 72.0267 19.9651 71.7121 20.2798C71.3974 20.5945 70.9094 20.7518 70.2481 20.7518ZM78.0081 21.9998V17.8078C78.0081 17.5518 78.0401 17.3065 78.1041 17.0718C78.1681 16.8371 78.2721 16.6291 78.4161 16.4478C78.5601 16.2665 78.7414 16.1225 78.9601 16.0158C79.1787 15.9091 79.4481 15.8558 79.7681 15.8558C80.0987 15.8558 80.3601 15.9331 80.5521 16.0878C80.7441 16.2425 80.8854 16.4345 80.9761 16.6638C81.0667 16.8931 81.1227 17.1385 81.1441 17.3998C81.1654 17.6611 81.1761 17.8985 81.1761 18.1118V21.9998H83.0961V17.1518C83.0961 16.7571 83.0481 16.3785 82.9521 16.0158C82.8561 15.6531 82.6961 15.3331 82.4721 15.0558C82.2481 14.7785 81.9574 14.5545 81.6001 14.3838C81.2427 14.2131 80.8081 14.1278 80.2961 14.1278C79.6561 14.1278 79.1494 14.2691 78.7761 14.5518C78.4027 14.8345 78.1254 15.1678 77.9441 15.5518H77.9121V14.3198H76.0881V21.9998H78.0081ZM89.0641 22.1918C89.2347 22.1918 89.4374 22.1731 89.6721 22.1358C89.9067 22.0985 90.1521 22.0371 90.4081 21.9518C90.6641 21.8665 90.9174 21.7545 91.1681 21.6158C91.4187 21.4771 91.6401 21.3118 91.8321 21.1198L90.5521 19.7438C90.3707 19.9785 90.1521 20.1571 89.8961 20.2798C89.6401 20.4025 89.3627 20.4638 89.0641 20.4638C88.7121 20.4638 88.3974 20.3998 88.1201 20.2718C87.8427 20.1438 87.6054 19.9731 87.4081 19.7598C87.2107 19.5465 87.0614 19.3011 86.9601 19.0238C86.8587 18.7465 86.8081 18.4585 86.8081 18.1598C86.8081 17.8611 86.8587 17.5731 86.9601 17.2958C87.0614 17.0185 87.2107 16.7731 87.4081 16.5598C87.6054 16.3465 87.8427 16.1758 88.1201 16.0478C88.3974 15.9198 88.7121 15.8558 89.0641 15.8558C89.3201 15.8558 89.5707 15.9251 89.8161 16.0638C90.0614 16.2025 90.2961 16.3891 90.5201 16.6238L91.8481 15.2958C91.4747 14.8905 91.0401 14.5945 90.5441 14.4078C90.0481 14.2211 89.5547 14.1278 89.0641 14.1278C88.4881 14.1278 87.9441 14.2238 87.4321 14.4158C86.9201 14.6078 86.4774 14.8798 86.1041 15.2318C85.7307 15.5838 85.4347 16.0078 85.2161 16.5038C84.9974 16.9998 84.8881 17.5518 84.8881 18.1598C84.8881 18.7678 84.9974 19.3198 85.2161 19.8158C85.4347 20.3118 85.7307 20.7358 86.1041 21.0878C86.4774 21.4398 86.9201 21.7118 87.4321 21.9038C87.9441 22.0958 88.4881 22.1918 89.0641 22.1918ZM94.9041 21.9998V17.8078C94.9041 17.5518 94.9361 17.3065 95.0001 17.0718C95.0641 16.8371 95.1681 16.6291 95.3121 16.4478C95.4561 16.2665 95.6374 16.1225 95.8561 16.0158C96.0747 15.9091 96.3441 15.8558 96.6641 15.8558C96.9947 15.8558 97.2561 15.9331 97.4481 16.0878C97.6401 16.2425 97.7814 16.4345 97.8721 16.6638C97.9627 16.8931 98.0187 17.1385 98.0401 17.3998C98.0614 17.6611 98.0721 17.8985 98.0721 18.1118V21.9998H99.9921V17.1518C99.9921 16.7571 99.9441 16.3785 99.8481 16.0158C99.7521 15.6531 99.5921 15.3331 99.3681 15.0558C99.1441 14.7785 98.8534 14.5545 98.4961 14.3838C98.1387 14.2131 97.7041 14.1278 97.1921 14.1278C96.5947 14.1278 96.1067 14.2585 95.7281 14.5198C95.3494 14.7811 95.0854 15.0718 94.9361 15.3918H94.9041V9.90381H92.9841V21.9998H94.9041ZM103.144 12.8638C103.496 12.8638 103.792 12.7545 104.032 12.5358C104.272 12.3171 104.392 12.0425 104.392 11.7118C104.392 11.3811 104.272 11.1065 104.032 10.8878C103.792 10.6691 103.496 10.5598 103.144 10.5598C102.792 10.5598 102.501 10.6745 102.272 10.9038C102.043 11.1331 101.928 11.4025 101.928 11.7118C101.928 12.0211 102.043 12.2905 102.272 12.5198C102.501 12.7491 102.792 12.8638 103.144 12.8638ZM104.12 21.9998V14.3198H102.2V21.9998H104.12ZM108.248 21.9998V17.8078C108.248 17.5518 108.28 17.3065 108.344 17.0718C108.408 16.8371 108.512 16.6291 108.656 16.4478C108.8 16.2665 108.981 16.1225 109.2 16.0158C109.419 15.9091 109.688 15.8558 110.008 15.8558C110.339 15.8558 110.6 15.9331 110.792 16.0878C110.984 16.2425 111.125 16.4345 111.216 16.6638C111.307 16.8931 111.363 17.1385 111.384 17.3998C111.405 17.6611 111.416 17.8985 111.416 18.1118V21.9998H113.336V17.1518C113.336 16.7571 113.288 16.3785 113.192 16.0158C113.096 15.6531 112.936 15.3331 112.712 15.0558C112.488 14.7785 112.197 14.5545 111.84 14.3838C111.483 14.2131 111.048 14.1278 110.536 14.1278C109.896 14.1278 109.389 14.2691 109.016 14.5518C108.643 14.8345 108.365 15.1678 108.184 15.5518H108.152V14.3198H106.328V21.9998H108.248ZM119.08 25.8398C119.827 25.8398 120.472 25.7331 121.016 25.5198C121.56 25.3065 122.011 25.0051 122.368 24.6158C122.725 24.2265 122.989 23.7518 123.16 23.1918C123.331 22.6318 123.416 22.0051 123.416 21.3118V14.3198H121.592V15.4718H121.56C121.283 15.0025 120.909 14.6611 120.44 14.4478C119.971 14.2345 119.464 14.1278 118.92 14.1278C118.323 14.1278 117.792 14.2318 117.328 14.4398C116.864 14.6478 116.467 14.9331 116.136 15.2958C115.805 15.6585 115.555 16.0851 115.384 16.5758C115.213 17.0665 115.128 17.5945 115.128 18.1598C115.128 18.7038 115.219 19.2158 115.4 19.6958C115.581 20.1758 115.84 20.5918 116.176 20.9438C116.512 21.2958 116.915 21.5758 117.384 21.7838C117.853 21.9918 118.376 22.0958 118.952 22.0958C119.432 22.0958 119.901 22.0025 120.36 21.8158C120.819 21.6291 121.187 21.3491 121.464 20.9758H121.496V21.5358C121.496 21.9198 121.456 22.2691 121.376 22.5838C121.296 22.8985 121.163 23.1678 120.976 23.3918C120.789 23.6158 120.539 23.7918 120.224 23.9198C119.909 24.0478 119.523 24.1118 119.064 24.1118C118.52 24.1118 118.04 24.0158 117.624 23.8238C117.208 23.6318 116.808 23.3598 116.424 23.0078L115.272 24.5758C115.816 25.0558 116.408 25.3865 117.048 25.5678C117.688 25.7491 118.365 25.8398 119.08 25.8398ZM119.304 20.3678C118.984 20.3678 118.685 20.3091 118.408 20.1918C118.131 20.0745 117.891 19.9145 117.688 19.7118C117.485 19.5091 117.328 19.2745 117.216 19.0078C117.104 18.7411 117.048 18.4531 117.048 18.1438C117.048 17.8025 117.104 17.4905 117.216 17.2078C117.328 16.9251 117.483 16.6851 117.68 16.4878C117.877 16.2905 118.115 16.1358 118.392 16.0238C118.669 15.9118 118.979 15.8558 119.32 15.8558C120.024 15.8558 120.579 16.0638 120.984 16.4798C121.389 16.8958 121.592 17.4398 121.592 18.1118C121.592 18.4318 121.539 18.7305 121.432 19.0078C121.325 19.2851 121.173 19.5225 120.976 19.7198C120.779 19.9171 120.539 20.0745 120.256 20.1918C119.973 20.3091 119.656 20.3678 119.304 20.3678ZM54.2801 37.9998V33.3118H55.7201C56.3174 33.3118 56.8907 33.2691 57.4401 33.1838C57.9894 33.0985 58.4721 32.9358 58.8881 32.6958C59.3041 32.4558 59.6347 32.1171 59.8801 31.6798C60.1254 31.2425 60.2481 30.6665 60.2481 29.9518C60.2481 29.3225 60.1334 28.7971 59.9041 28.3758C59.6747 27.9545 59.3681 27.6185 58.9841 27.3678C58.6001 27.1171 58.1547 26.9385 57.6481 26.8318C57.1414 26.7251 56.6161 26.6718 56.0721 26.6718H52.2641V37.9998H54.2801ZM55.4961 31.5838H54.2801V28.3998H55.7201C55.9867 28.3998 56.2641 28.4158 56.5521 28.4478C56.8401 28.4798 57.1014 28.5518 57.3361 28.6638C57.5707 28.7758 57.7627 28.9358 57.9121 29.1438C58.0614 29.3518 58.1361 29.6318 58.1361 29.9838C58.1361 30.3678 58.0534 30.6665 57.8881 30.8798C57.7227 31.0931 57.5094 31.2531 57.2481 31.3598C56.9867 31.4665 56.7014 31.5305 56.3921 31.5518C56.0827 31.5731 55.7841 31.5838 55.4961 31.5838ZM63.7841 37.9998V33.8878C63.7841 33.7811 63.8081 33.6211 63.8561 33.4078C63.9041 33.1945 64.0001 32.9811 64.1441 32.7678C64.2881 32.5545 64.4961 32.3651 64.7681 32.1998C65.0401 32.0345 65.4001 31.9518 65.8481 31.9518C65.9974 31.9518 66.1494 31.9651 66.3041 31.9918C66.4587 32.0185 66.6161 32.0531 66.7761 32.0958V30.2398C66.6587 30.2078 66.5441 30.1811 66.4321 30.1598C66.3201 30.1385 66.2054 30.1278 66.0881 30.1278C65.5761 30.1278 65.1227 30.2505 64.7281 30.4958C64.3334 30.7411 64.0294 31.0878 63.8161 31.5358H63.7841V30.3198H61.8641V37.9998H63.7841ZM71.8801 38.1918C72.4561 38.1918 73.0001 38.0958 73.5121 37.9038C74.0241 37.7118 74.4667 37.4398 74.8401 37.0878C75.2134 36.7358 75.5094 36.3118 75.7281 35.8158C75.9467 35.3198 76.0561 34.7678 76.0561 34.1598C76.0561 33.5518 75.9467 32.9998 75.7281 32.5038C75.5094 32.0078 75.2134 31.5838 74.8401 31.2318C74.4667 30.8798 74.0241 30.6078 73.5121 30.4158C73.0001 30.2238 72.4561 30.1278 71.8801 30.1278C71.3041 30.1278 70.7601 30.2238 70.2481 30.4158C69.7361 30.6078 69.2934 30.8798 68.9201 31.2318C68.5467 31.5838 68.2507 32.0078 68.0321 32.5038C67.8134 32.9998 67.7041 33.5518 67.7041 34.1598C67.7041 34.7678 67.8134 35.3198 68.0321 35.8158C68.2507 36.3118 68.5467 36.7358 68.9201 37.0878C69.2934 37.4398 69.7361 37.7118 70.2481 37.9038C70.7601 38.0958 71.3041 38.1918 71.8801 38.1918ZM71.8801 36.4638C71.5281 36.4638 71.2134 36.3998 70.9361 36.2718C70.6587 36.1438 70.4214 35.9731 70.2241 35.7598C70.0267 35.5465 69.8774 35.3011 69.7761 35.0238C69.6747 34.7465 69.6241 34.4585 69.6241 34.1598C69.6241 33.8611 69.6747 33.5731 69.7761 33.2958C69.8774 33.0185 70.0267 32.7731 70.2241 32.5598C70.4214 32.3465 70.6587 32.1758 70.9361 32.0478C71.2134 31.9198 71.5281 31.8558 71.8801 31.8558C72.2321 31.8558 72.5467 31.9198 72.8241 32.0478C73.1014 32.1758 73.3387 32.3465 73.5361 32.5598C73.7334 32.7731 73.8827 33.0185 73.9841 33.2958C74.0854 33.5731 74.1361 33.8611 74.1361 34.1598C74.1361 34.4585 74.0854 34.7465 73.9841 35.0238C73.8827 35.3011 73.7334 35.5465 73.5361 35.7598C73.3387 35.9731 73.1014 36.1438 72.8241 36.2718C72.5467 36.3998 72.2321 36.4638 71.8801 36.4638ZM81.0481 38.1918C81.2721 38.1918 81.5307 38.1731 81.8241 38.1358C82.1174 38.0985 82.3654 38.0318 82.5681 37.9358V36.3198C82.4507 36.4051 82.2907 36.4665 82.0881 36.5038C81.8854 36.5411 81.6987 36.5598 81.5281 36.5598C81.1014 36.5598 80.8161 36.4478 80.6721 36.2238C80.5281 35.9998 80.4561 35.6958 80.4561 35.3118V31.9518H82.5681V30.3198H80.4561V28.0958H78.5361V30.3198H76.9521V31.9518H78.5361V35.4718C78.5361 35.9198 78.5707 36.3145 78.6401 36.6558C78.7094 36.9971 78.8374 37.2825 79.0241 37.5118C79.2107 37.7411 79.4667 37.9118 79.7921 38.0238C80.1174 38.1358 80.5361 38.1918 81.0481 38.1918ZM87.8641 38.1918C88.4401 38.1918 88.9841 38.0958 89.4961 37.9038C90.0081 37.7118 90.4507 37.4398 90.8241 37.0878C91.1974 36.7358 91.4934 36.3118 91.7121 35.8158C91.9307 35.3198 92.0401 34.7678 92.0401 34.1598C92.0401 33.5518 91.9307 32.9998 91.7121 32.5038C91.4934 32.0078 91.1974 31.5838 90.8241 31.2318C90.4507 30.8798 90.0081 30.6078 89.4961 30.4158C88.9841 30.2238 88.4401 30.1278 87.8641 30.1278C87.2881 30.1278 86.7441 30.2238 86.2321 30.4158C85.7201 30.6078 85.2774 30.8798 84.9041 31.2318C84.5307 31.5838 84.2347 32.0078 84.0161 32.5038C83.7974 32.9998 83.6881 33.5518 83.6881 34.1598C83.6881 34.7678 83.7974 35.3198 84.0161 35.8158C84.2347 36.3118 84.5307 36.7358 84.9041 37.0878C85.2774 37.4398 85.7201 37.7118 86.2321 37.9038C86.7441 38.0958 87.2881 38.1918 87.8641 38.1918ZM87.8641 36.4638C87.5121 36.4638 87.1974 36.3998 86.9201 36.2718C86.6427 36.1438 86.4054 35.9731 86.2081 35.7598C86.0107 35.5465 85.8614 35.3011 85.7601 35.0238C85.6587 34.7465 85.6081 34.4585 85.6081 34.1598C85.6081 33.8611 85.6587 33.5731 85.7601 33.2958C85.8614 33.0185 86.0107 32.7731 86.2081 32.5598C86.4054 32.3465 86.6427 32.1758 86.9201 32.0478C87.1974 31.9198 87.5121 31.8558 87.8641 31.8558C88.2161 31.8558 88.5307 31.9198 88.8081 32.0478C89.0854 32.1758 89.3227 32.3465 89.5201 32.5598C89.7174 32.7731 89.8667 33.0185 89.9681 33.2958C90.0694 33.5731 90.1201 33.8611 90.1201 34.1598C90.1201 34.4585 90.0694 34.7465 89.9681 35.0238C89.8667 35.3011 89.7174 35.5465 89.5201 35.7598C89.3227 35.9731 89.0854 36.1438 88.8081 36.2718C88.5307 36.3998 88.2161 36.4638 87.8641 36.4638ZM97.6241 38.1918C97.7947 38.1918 97.9974 38.1731 98.2321 38.1358C98.4667 38.0985 98.7121 38.0371 98.9681 37.9518C99.2241 37.8665 99.4774 37.7545 99.7281 37.6158C99.9787 37.4771 100.2 37.3118 100.392 37.1198L99.1121 35.7438C98.9307 35.9785 98.7121 36.1571 98.4561 36.2798C98.2001 36.4025 97.9227 36.4638 97.6241 36.4638C97.2721 36.4638 96.9574 36.3998 96.6801 36.2718C96.4027 36.1438 96.1654 35.9731 95.9681 35.7598C95.7707 35.5465 95.6214 35.3011 95.5201 35.0238C95.4187 34.7465 95.3681 34.4585 95.3681 34.1598C95.3681 33.8611 95.4187 33.5731 95.5201 33.2958C95.6214 33.0185 95.7707 32.7731 95.9681 32.5598C96.1654 32.3465 96.4027 32.1758 96.6801 32.0478C96.9574 31.9198 97.2721 31.8558 97.6241 31.8558C97.8801 31.8558 98.1307 31.9251 98.3761 32.0638C98.6214 32.2025 98.8561 32.3891 99.0801 32.6238L100.408 31.2958C100.035 30.8905 99.6001 30.5945 99.1041 30.4078C98.6081 30.2211 98.1147 30.1278 97.6241 30.1278C97.0481 30.1278 96.5041 30.2238 95.9921 30.4158C95.4801 30.6078 95.0374 30.8798 94.6641 31.2318C94.2907 31.5838 93.9947 32.0078 93.7761 32.5038C93.5574 32.9998 93.4481 33.5518 93.4481 34.1598C93.4481 34.7678 93.5574 35.3198 93.7761 35.8158C93.9947 36.3118 94.2907 36.7358 94.6641 37.0878C95.0374 37.4398 95.4801 37.7118 95.9921 37.9038C96.5041 38.0958 97.0481 38.1918 97.6241 38.1918ZM105.336 38.1918C105.912 38.1918 106.456 38.0958 106.968 37.9038C107.48 37.7118 107.923 37.4398 108.296 37.0878C108.669 36.7358 108.965 36.3118 109.184 35.8158C109.403 35.3198 109.512 34.7678 109.512 34.1598C109.512 33.5518 109.403 32.9998 109.184 32.5038C108.965 32.0078 108.669 31.5838 108.296 31.2318C107.923 30.8798 107.48 30.6078 106.968 30.4158C106.456 30.2238 105.912 30.1278 105.336 30.1278C104.76 30.1278 104.216 30.2238 103.704 30.4158C103.192 30.6078 102.749 30.8798 102.376 31.2318C102.003 31.5838 101.707 32.0078 101.488 32.5038C101.269 32.9998 101.16 33.5518 101.16 34.1598C101.16 34.7678 101.269 35.3198 101.488 35.8158C101.707 36.3118 102.003 36.7358 102.376 37.0878C102.749 37.4398 103.192 37.7118 103.704 37.9038C104.216 38.0958 104.76 38.1918 105.336 38.1918ZM105.336 36.4638C104.984 36.4638 104.669 36.3998 104.392 36.2718C104.115 36.1438 103.877 35.9731 103.68 35.7598C103.483 35.5465 103.333 35.3011 103.232 35.0238C103.131 34.7465 103.08 34.4585 103.08 34.1598C103.08 33.8611 103.131 33.5731 103.232 33.2958C103.333 33.0185 103.483 32.7731 103.68 32.5598C103.877 32.3465 104.115 32.1758 104.392 32.0478C104.669 31.9198 104.984 31.8558 105.336 31.8558C105.688 31.8558 106.003 31.9198 106.28 32.0478C106.557 32.1758 106.795 32.3465 106.992 32.5598C107.189 32.7731 107.339 33.0185 107.44 33.2958C107.541 33.5731 107.592 33.8611 107.592 34.1598C107.592 34.4585 107.541 34.7465 107.44 35.0238C107.339 35.3011 107.189 35.5465 106.992 35.7598C106.795 35.9731 106.557 36.1438 106.28 36.2718C106.003 36.3998 105.688 36.4638 105.336 36.4638ZM113.256 37.9998V25.9038H111.336V37.9998H113.256Z" fill="#29D1FF"/>
<path d="M37.829 34.3025L32.1731 28.3574L9.4716 39.7955L9.41063 37.0849L32.0464 25.6781L37.7747 31.6957L37.829 34.3025ZM0.0844727 30.4098L1.72028 29.589L3.31444 31.2609L3.74905 31.7196L5.31785 33.3673L5.53576 33.596L5.75306 33.826L8.80677 37.0309L8.86774 39.6444L4.11725 34.6469L3.89995 34.4229L3.68204 34.1936L2.11324 32.5471L1.67863 32.0871L0.0844727 30.4098ZM41.6442 30.1024L43.0265 29.4022L44.7951 31.2612L43.4128 31.9547L43.1351 32.0996L42.8514 32.2384L41.5537 32.8969L41.276 33.0351L40.9923 33.1799L38.445 34.4601L38.3786 31.7501L39.2231 31.3216L39.5068 31.1761L39.7851 31.0379L41.0822 30.3861L41.3665 30.2412L41.6442 30.1024ZM18.0004 13.4678L17.1312 12.5564L18.7724 11.7295L19.6362 12.6409L18.0004 13.4678Z" fill="black"/>
<path d="M37.829 34.3025L32.1731 28.3574L9.4716 39.7955L9.41063 37.0849L32.0464 25.6781L37.7747 31.6957L37.829 34.3025ZM0.0844727 30.4098L1.72028 29.589L3.31444 31.2609L3.74905 31.7196L5.31785 33.3673L5.53576 33.596L5.75306 33.826L8.80677 37.0309L8.86774 39.6444L4.11725 34.6469L3.89995 34.4229L3.68204 34.1936L2.11324 32.5471L1.67863 32.0871L0.0844727 30.4098ZM41.6442 30.1024L43.0265 29.4022L44.7951 31.2612L43.4128 31.9547L43.1351 32.0996L42.8514 32.2384L41.5537 32.8969L41.276 33.0351L40.9923 33.1799L38.445 34.4601L38.3786 31.7501L39.2231 31.3216L39.5068 31.1761L39.7851 31.0379L41.0822 30.3861L41.3665 30.2412L41.6442 30.1024ZM18.0004 13.4678L17.1312 12.5564L18.7724 11.7295L19.6362 12.6409L18.0004 13.4678Z" fill="url(#paint0_linear_6626_3001)" fill-opacity="0.5"/>
<path d="M37.7506 30.7957L32.1732 24.9351L9.39258 36.4149L9.32619 33.3066L30.809 22.4786L31.0927 22.3398L31.3704 22.195L31.9619 21.8992L37.6842 27.9167L37.7084 28.8523L37.7138 29.2995L37.7265 29.7522L37.7506 30.7957ZM41.1368 26.5409L42.7732 25.7134L44.7953 27.8385L43.1589 28.6648L42.8758 28.8036L42.5915 28.9491L41.2098 29.6432L40.9316 29.782L40.6479 29.9262L39.3507 30.5787L39.0724 30.7229L38.7887 30.8624L38.3662 31.0736L38.3481 30.4037L38.342 29.951L38.3306 29.5098L38.2938 27.9773L38.6318 27.8083L38.9094 27.6629L39.1931 27.5247L40.5754 26.8245L40.8597 26.6857L41.1368 26.5409ZM19.1168 11.2224L18.8995 10.993L17.1309 9.13404L18.9418 8.22266L20.7104 10.0816L20.9277 10.3104L21.145 10.5343L22.0082 11.4457L20.1973 12.3571L19.3341 11.4457L19.1168 11.2224ZM0.0844727 26.9874L1.87783 26.0826L3.64583 27.935L3.86313 28.1704H3.86917L4.08043 28.3937L5.68063 30.071L5.89793 30.3015L6.11463 30.5243L7.68404 32.178L7.90134 32.4068L8.11925 32.6307L8.72287 33.2644L8.78866 36.138L6.31986 33.5415L6.10316 33.3127L5.88525 33.0834L4.31584 31.435L4.09854 31.2063L3.88124 30.9769L2.28768 29.299L2.07038 29.0757L1.84764 28.8403L0.0844727 26.9874Z" fill="black"/>
<path d="M37.7506 30.7957L32.1732 24.9351L9.39258 36.4149L9.32619 33.3066L30.809 22.4786L31.0927 22.3398L31.3704 22.195L31.9619 21.8992L37.6842 27.9167L37.7084 28.8523L37.7138 29.2995L37.7265 29.7522L37.7506 30.7957ZM41.1368 26.5409L42.7732 25.7134L44.7953 27.8385L43.1589 28.6648L42.8758 28.8036L42.5915 28.9491L41.2098 29.6432L40.9316 29.782L40.6479 29.9262L39.3507 30.5787L39.0724 30.7229L38.7887 30.8624L38.3662 31.0736L38.3481 30.4037L38.342 29.951L38.3306 29.5098L38.2938 27.9773L38.6318 27.8083L38.9094 27.6629L39.1931 27.5247L40.5754 26.8245L40.8597 26.6857L41.1368 26.5409ZM19.1168 11.2224L18.8995 10.993L17.1309 9.13404L18.9418 8.22266L20.7104 10.0816L20.9277 10.3104L21.145 10.5343L22.0082 11.4457L20.1973 12.3571L19.3341 11.4457L19.1168 11.2224ZM0.0844727 26.9874L1.87783 26.0826L3.64583 27.935L3.86313 28.1704H3.86917L4.08043 28.3937L5.68063 30.071L5.89793 30.3015L6.11463 30.5243L7.68404 32.178L7.90134 32.4068L8.11925 32.6307L8.72287 33.2644L8.78866 36.138L6.31986 33.5415L6.10316 33.3127L5.88525 33.0834L4.31584 31.435L4.09854 31.2063L3.88124 30.9769L2.28768 29.299L2.07038 29.0757L1.84764 28.8403L0.0844727 26.9874Z" fill="url(#paint1_linear_6626_3001)" fill-opacity="0.7"/>
<path d="M37.9015 37.4051L32.2577 31.4721L9.54346 42.9157L9.48913 40.4652L32.0464 29.1001L37.8532 35.2021L37.9015 37.4051ZM0.169189 33.5246L1.54544 32.8299L3.11546 34.4776L3.54946 34.9369L8.88545 40.5374L8.89088 40.5501L8.93978 42.7404L2.17321 35.6304L1.9559 35.4011L1.7386 35.1717L0.169189 33.5246ZM41.9875 33.3551L43.2919 32.6972L44.8795 34.3691L43.5817 35.027L43.304 35.1664L43.0203 35.3112L38.5113 37.58L38.4569 35.1296L41.4261 33.6388L41.7098 33.4933L41.9875 33.3551Z" fill="black"/>
<path d="M37.9015 37.4051L32.2577 31.4721L9.54346 42.9157L9.48913 40.4652L32.0464 29.1001L37.8532 35.2021L37.9015 37.4051ZM0.169189 33.5246L1.54544 32.8299L3.11546 34.4776L3.54946 34.9369L8.88545 40.5374L8.89088 40.5501L8.93978 42.7404L2.17321 35.6304L1.9559 35.4011L1.7386 35.1717L0.169189 33.5246ZM41.9875 33.3551L43.2919 32.6972L44.8795 34.3691L43.5817 35.027L43.304 35.1664L43.0203 35.3112L38.5113 37.58L38.4569 35.1296L41.4261 33.6388L41.7098 33.4933L41.9875 33.3551Z" fill="url(#paint2_linear_6626_3001)" fill-opacity="0.3"/>
<path fill-rule="evenodd" clip-rule="evenodd" d="M23.7108 2L17.0468 5.36185L19.0683 7.48035L19.5029 7.93906L21.2721 9.79804L21.4888 10.0214L21.7068 10.2507L23.0106 11.6208L20.6383 12.8159L20.354 12.9607L20.0703 13.1001L18.4345 13.9264L18.1508 14.0713L17.8732 14.2101L0 23.2152L2.01609 25.3338L2.23943 25.5631L2.45733 25.7925L4.2199 27.6454L4.4366 27.8808L4.65451 28.1041L6.2541 29.7826L6.4708 30.0114L6.6881 30.2407L8.25812 31.8885L8.47482 32.1184L8.69212 32.3411L9.08447 32.7576L30.3741 22.0256L30.6578 21.8814L30.9355 21.7426L32.089 21.1631L38.0407 27.4094L38.1856 27.3382L38.4626 27.1927L38.7469 27.0539L40.1286 26.3604L40.4129 26.215L40.6906 26.0701L42.3258 25.2487L42.6095 25.1044L42.8998 24.9595L44.704 24.0542L23.7108 2Z" fill="url(#paint3_linear_6626_3001)"/>
</g>
<defs>
<linearGradient id="paint0_linear_6626_3001" x1="0.0844727" y1="1625.78" x2="4471.15" y2="1625.78" gradientUnits="userSpaceOnUse">
<stop stop-color="#7983FF"/>
<stop offset="1" stop-color="#00F8FF"/>
</linearGradient>
<linearGradient id="paint1_linear_6626_3001" x1="0.0844727" y1="1629.53" x2="4471.17" y2="1629.53" gradientUnits="userSpaceOnUse">
<stop stop-color="#7983FF"/>
<stop offset="1" stop-color="#00F8FF"/>
</linearGradient>
<linearGradient id="paint2_linear_6626_3001" x1="0.169189" y1="823.621" x2="4471.2" y2="823.621" gradientUnits="userSpaceOnUse">
<stop stop-color="#7983FF"/>
<stop offset="1" stop-color="#00F8FF"/>
</linearGradient>
<linearGradient id="paint3_linear_6626_3001" x1="0" y1="1770.84" x2="4470.4" y2="1770.84" gradientUnits="userSpaceOnUse">
<stop stop-color="#7983FF"/>
<stop offset="1" stop-color="#00F8FF"/>
</linearGradient>
<clipPath id="clip0_6626_3001">
<rect width="124" height="41" fill="white" transform="translate(0 2)"/>
</clipPath>
</defs>
</svg>
