<svg width="45" height="41" viewBox="0 0 45 41" fill="none" xmlns="http://www.w3.org/2000/svg">
<path d="M37.829 32.3025L32.1731 26.3574L9.4716 37.7955L9.41063 35.0849L32.0464 23.6781L37.7747 29.6957L37.829 32.3025ZM0.0844727 28.4098L1.72028 27.589L3.31444 29.2609L3.74905 29.7196L5.31785 31.3673L5.53576 31.596L5.75306 31.826L8.80677 35.0309L8.86774 37.6444L4.11725 32.6469L3.89995 32.4229L3.68204 32.1936L2.11324 30.5471L1.67863 30.0871L0.0844727 28.4098ZM41.6442 28.1024L43.0265 27.4022L44.7951 29.2612L43.4128 29.9547L43.1351 30.0996L42.8514 30.2384L41.5537 30.8969L41.276 31.0351L40.9923 31.1799L38.445 32.4601L38.3786 29.7501L39.2231 29.3216L39.5068 29.1761L39.7851 29.0379L41.0822 28.3861L41.3665 28.2412L41.6442 28.1024ZM18.0004 11.4678L17.1312 10.5564L18.7724 9.72949L19.6362 10.6409L18.0004 11.4678Z" fill="black"/>
<path d="M37.829 32.3025L32.1731 26.3574L9.4716 37.7955L9.41063 35.0849L32.0464 23.6781L37.7747 29.6957L37.829 32.3025ZM0.0844727 28.4098L1.72028 27.589L3.31444 29.2609L3.74905 29.7196L5.31785 31.3673L5.53576 31.596L5.75306 31.826L8.80677 35.0309L8.86774 37.6444L4.11725 32.6469L3.89995 32.4229L3.68204 32.1936L2.11324 30.5471L1.67863 30.0871L0.0844727 28.4098ZM41.6442 28.1024L43.0265 27.4022L44.7951 29.2612L43.4128 29.9547L43.1351 30.0996L42.8514 30.2384L41.5537 30.8969L41.276 31.0351L40.9923 31.1799L38.445 32.4601L38.3786 29.7501L39.2231 29.3216L39.5068 29.1761L39.7851 29.0379L41.0822 28.3861L41.3665 28.2412L41.6442 28.1024ZM18.0004 11.4678L17.1312 10.5564L18.7724 9.72949L19.6362 10.6409L18.0004 11.4678Z" fill="url(#paint0_linear_6626_3007)" fill-opacity="0.5"/>
<path d="M37.7506 28.7957L32.1732 22.9351L9.39258 34.4149L9.32619 31.3066L30.809 20.4786L31.0927 20.3398L31.3704 20.195L31.9619 19.8992L37.6842 25.9167L37.7084 26.8523L37.7138 27.2995L37.7265 27.7522L37.7506 28.7957ZM41.1368 24.5409L42.7732 23.7134L44.7953 25.8385L43.1589 26.6648L42.8758 26.8036L42.5915 26.9491L41.2098 27.6432L40.9316 27.782L40.6479 27.9262L39.3507 28.5787L39.0724 28.7229L38.7887 28.8624L38.3662 29.0736L38.3481 28.4037L38.342 27.951L38.3306 27.5098L38.2938 25.9773L38.6318 25.8083L38.9094 25.6629L39.1931 25.5247L40.5754 24.8245L40.8597 24.6857L41.1368 24.5409ZM19.1168 9.22237L18.8995 8.99301L17.1309 7.13404L18.9418 6.22266L20.7104 8.08163L20.9277 8.31038L21.145 8.5343L22.0082 9.44568L20.1973 10.3571L19.3341 9.44568L19.1168 9.22237ZM0.0844727 24.9874L1.87783 24.0826L3.64583 25.935L3.86313 26.1704H3.86917L4.08043 26.3937L5.68063 28.071L5.89793 28.3015L6.11463 28.5243L7.68404 30.178L7.90134 30.4068L8.11925 30.6307L8.72287 31.2644L8.78866 34.138L6.31986 31.5415L6.10316 31.3127L5.88525 31.0834L4.31584 29.435L4.09854 29.2063L3.88124 28.9769L2.28768 27.299L2.07038 27.0757L1.84764 26.8403L0.0844727 24.9874Z" fill="black"/>
<path d="M37.7506 28.7957L32.1732 22.9351L9.39258 34.4149L9.32619 31.3066L30.809 20.4786L31.0927 20.3398L31.3704 20.195L31.9619 19.8992L37.6842 25.9167L37.7084 26.8523L37.7138 27.2995L37.7265 27.7522L37.7506 28.7957ZM41.1368 24.5409L42.7732 23.7134L44.7953 25.8385L43.1589 26.6648L42.8758 26.8036L42.5915 26.9491L41.2098 27.6432L40.9316 27.782L40.6479 27.9262L39.3507 28.5787L39.0724 28.7229L38.7887 28.8624L38.3662 29.0736L38.3481 28.4037L38.342 27.951L38.3306 27.5098L38.2938 25.9773L38.6318 25.8083L38.9094 25.6629L39.1931 25.5247L40.5754 24.8245L40.8597 24.6857L41.1368 24.5409ZM19.1168 9.22237L18.8995 8.99301L17.1309 7.13404L18.9418 6.22266L20.7104 8.08163L20.9277 8.31038L21.145 8.5343L22.0082 9.44568L20.1973 10.3571L19.3341 9.44568L19.1168 9.22237ZM0.0844727 24.9874L1.87783 24.0826L3.64583 25.935L3.86313 26.1704H3.86917L4.08043 26.3937L5.68063 28.071L5.89793 28.3015L6.11463 28.5243L7.68404 30.178L7.90134 30.4068L8.11925 30.6307L8.72287 31.2644L8.78866 34.138L6.31986 31.5415L6.10316 31.3127L5.88525 31.0834L4.31584 29.435L4.09854 29.2063L3.88124 28.9769L2.28768 27.299L2.07038 27.0757L1.84764 26.8403L0.0844727 24.9874Z" fill="url(#paint1_linear_6626_3007)" fill-opacity="0.7"/>
<path d="M37.9015 35.4051L32.2577 29.4721L9.54346 40.9157L9.48913 38.4652L32.0464 27.1001L37.8532 33.2021L37.9015 35.4051ZM0.169189 31.5246L1.54544 30.8299L3.11546 32.4776L3.54946 32.9369L8.88545 38.5374L8.89088 38.5501L8.93978 40.7404L2.17321 33.6304L1.9559 33.4011L1.7386 33.1717L0.169189 31.5246ZM41.9875 31.3551L43.2919 30.6972L44.8795 32.3691L43.5817 33.027L43.304 33.1664L43.0203 33.3112L38.5113 35.58L38.4569 33.1296L41.4261 31.6388L41.7098 31.4933L41.9875 31.3551Z" fill="black"/>
<path d="M37.9015 35.4051L32.2577 29.4721L9.54346 40.9157L9.48913 38.4652L32.0464 27.1001L37.8532 33.2021L37.9015 35.4051ZM0.169189 31.5246L1.54544 30.8299L3.11546 32.4776L3.54946 32.9369L8.88545 38.5374L8.89088 38.5501L8.93978 40.7404L2.17321 33.6304L1.9559 33.4011L1.7386 33.1717L0.169189 31.5246ZM41.9875 31.3551L43.2919 30.6972L44.8795 32.3691L43.5817 33.027L43.304 33.1664L43.0203 33.3112L38.5113 35.58L38.4569 33.1296L41.4261 31.6388L41.7098 31.4933L41.9875 31.3551Z" fill="url(#paint2_linear_6626_3007)" fill-opacity="0.3"/>
<path fill-rule="evenodd" clip-rule="evenodd" d="M23.7108 0L17.0468 3.36185L19.0683 5.48035L19.5029 5.93906L21.2721 7.79804L21.4888 8.02136L21.7068 8.25071L23.0106 9.6208L20.6383 10.8159L20.354 10.9607L20.0703 11.1001L18.4345 11.9264L18.1508 12.0713L17.8732 12.2101L0 21.2152L2.01609 23.3338L2.23943 23.5631L2.45733 23.7925L4.2199 25.6454L4.4366 25.8808L4.65451 26.1041L6.2541 27.7826L6.4708 28.0114L6.6881 28.2407L8.25812 29.8885L8.47482 30.1184L8.69212 30.3411L9.08447 30.7576L30.3741 20.0256L30.6578 19.8814L30.9355 19.7426L32.089 19.1631L38.0407 25.4094L38.1856 25.3382L38.4626 25.1927L38.7469 25.0539L40.1286 24.3604L40.4129 24.215L40.6906 24.0701L42.3258 23.2487L42.6095 23.1044L42.8998 22.9595L44.704 22.0542L23.7108 0Z" fill="url(#paint3_linear_6626_3007)"/>
<defs>
<linearGradient id="paint0_linear_6626_3007" x1="0.0844727" y1="1623.78" x2="4471.15" y2="1623.78" gradientUnits="userSpaceOnUse">
<stop stop-color="#7983FF"/>
<stop offset="1" stop-color="#00F8FF"/>
</linearGradient>
<linearGradient id="paint1_linear_6626_3007" x1="0.0844727" y1="1627.53" x2="4471.17" y2="1627.53" gradientUnits="userSpaceOnUse">
<stop stop-color="#7983FF"/>
<stop offset="1" stop-color="#00F8FF"/>
</linearGradient>
<linearGradient id="paint2_linear_6626_3007" x1="0.169189" y1="821.621" x2="4471.2" y2="821.621" gradientUnits="userSpaceOnUse">
<stop stop-color="#7983FF"/>
<stop offset="1" stop-color="#00F8FF"/>
</linearGradient>
<linearGradient id="paint3_linear_6626_3007" x1="0" y1="1768.84" x2="4470.4" y2="1768.84" gradientUnits="userSpaceOnUse">
<stop stop-color="#7983FF"/>
<stop offset="1" stop-color="#00F8FF"/>
</linearGradient>
</defs>
</svg>
